/* XPM */
static char * gunr12_xpm[] = {
"40 78 90 1",
" 	c None",
".	c #272727",
"+	c #070707",
"@	c #372313",
"#	c #1F170B",
"$	c #232323",
"%	c #6B4727",
"&	c #2F1B0B",
"*	c #3B3B3B",
"=	c #373737",
"-	c #0B0B0B",
";	c #874307",
">	c #732B00",
",	c #5F4323",
"'	c #432F1B",
")	c #4B4B4B",
"!	c #AF7B1F",
"~	c #D7BB43",
"{	c #C39B2F",
"]	c #530707",
"^	c #5F0707",
"/	c #470000",
"(	c #5B5B5B",
"_	c #430000",
":	c #5C5C5C",
"<	c #6E6E6E",
"[	c #484848",
"}	c #090909",
"|	c #5F5F5F",
"1	c #6C6C6C",
"2	c #2A2A2A",
"3	c #161616",
"4	c #3E3E3E",
"5	c #3A3A3A",
"6	c #666666",
"7	c #626262",
"8	c #252525",
"9	c #393939",
"0	c #6B6B6B",
"a	c #464646",
"b	c #343434",
"c	c #5E5E5E",
"d	c #0A0A0A",
"e	c #636363",
"f	c #6A6A6A",
"g	c #2D2D2D",
"h	c #313131",
"i	c #4F4F4F",
"j	c #2C2C2C",
"k	c #5A5A5A",
"l	c #0E0E0E",
"m	c #0C0C0C",
"n	c #505050",
"o	c #585858",
"p	c #646464",
"q	c #2F2F2F",
"r	c #383838",
"s	c #565656",
"t	c #101010",
"u	c #404040",
"v	c #676767",
"w	c #525252",
"x	c #494949",
"y	c #141414",
"z	c #3D3D3D",
"A	c #0D0D0D",
"B	c #444444",
"C	c #1E1E1E",
"D	c #545454",
"E	c #353535",
"F	c #616161",
"G	c #262626",
"H	c #535353",
"I	c #333333",
"J	c #1C1C1C",
"K	c #4E4E4E",
"L	c #606060",
"M	c #595959",
"N	c #6D6D6D",
"O	c #121212",
"P	c #555555",
"Q	c #323232",
"R	c #111111",
"S	c #686868",
"T	c #575757",
"U	c #696969",
"V	c #171717",
"W	c #454545",
"X	c #6F6F6F",
"Y	c #502014",
"                                        ",
"                                        ",
"                                        ",
"                                        ",
"                                        ",
"                                        ",
"                                        ",
"                                        ",
"                                        ",
"                                        ",
"                                        ",
"                                        ",
"                                        ",
"                                        ",
"                                        ",
"                                        ",
"                  .+@#+$                ",
"                  $++%&&+$              ",
"                 +*=-+;>@@-+            ",
"                 .*$++;=%,'> +          ",
"                 *)++;.-!->>>%-+        ",
"                 ))+>>*.--~{;>]^++      ",
"                 )=*+-*.**-{{]]/^-      ",
"                +******=**(-*.^_/-+     ",
"                =****=*.**)()--&_+++    ",
"                )*****=.**):(---+++     ",
"               +******..**(<[---+-+     ",
"               })*****.=*)|12---++      ",
"               34***5..**(678-+--+      ",
"              +99****.***(0a----++      ",
"              +b5****.**(c1$----++      ",
"              db****=.**(efd----++      ",
"             +gh****$***(f[----++       ",
"             +85****.***(fi----++       ",
"             +=5****.*=*(1j----+        ",
"             +*****..=*ikflm---+        ",
"            +******..==i6il---+         ",
"            +)*=**.===)n1j-----         ",
"            +***=*.$*=)o0l----+         ",
"           +a9****==**)pi----++         ",
"           +49***=.==))1q----++         ",
"           -r****..*=)s0t---++          ",
"          +qu****====ivwm---++          ",
"          +9x***.=***)1q----+           ",
"          yz****==***|0tA---+           ",
"         +=B****=.**ivwm----+           ",
"         -9****==$**(1qm---+            ",
"         Cu****=.**iD0t----+            ",
"        +E*****.=*=iFe+---++            ",
"        y2*****$**)ifq----+             ",
"       +G=****..*=)H0t----+             ",
"       dI*****.***)Fc+---++             ",
"       J=*****=***)fq----++             ",
"      +g5)****$***K0t----+              ",
"      +**)***..**iLMA----+              ",
"     ++******..**(NIO---++              ",
"     +******$.=*i:0y----+               ",
"     +******=$**ipP----++               ",
"    ++**=***..**ifQR---++               ",
"    +*******.**inSy----+                ",
"    +***i**==**i7TA---+$                ",
"   +****)**..**iUr----+.                ",
"   +****(**.**=(fV---+++                ",
"   ****)i*=.*=)7|----++                 ",
"  +****))*..**iUW----++                 ",
"  -******...==i0Vt---++                 ",
" --******.$**)F:m---++                  ",
"  ---=***.=**(er----+-                  ",
"   --++=****i(SV----+-                  ",
"     --+****XLM----++                   ",
"       -+***(sr----+-                   ",
"        --=((fyt----+                   ",
"          -*((A----++                   ",
"           --(*----                     ",
"              ----                      ",
"                                       Y",
"                                      YY",
"                                     YYY"};
