/* XPM */
static char * gunr11_xpm[] = {
"40 77 78 1",
" 	c None",
".	c #070707",
"+	c #272727",
"@	c #373737",
"#	c #232323",
"$	c #4B4B4B",
"%	c #0B0B0B",
"&	c #3B3B3B",
"*	c #5B5B5B",
"=	c #5C5C5C",
"-	c #656565",
";	c #0A0A0A",
">	c #6E6E6E",
",	c #484848",
"'	c #202020",
")	c #424242",
"!	c #5F5F5F",
"~	c #6C6C6C",
"{	c #2A2A2A",
"]	c #2B2B2B",
"^	c #3A3A3A",
"/	c #666666",
"(	c #626262",
"_	c #252525",
":	c #090909",
"<	c #353535",
"[	c #393939",
"}	c #6B6B6B",
"|	c #464646",
"1	c #161616",
"2	c #3E3E3E",
"3	c #5E5E5E",
"4	c #636363",
"5	c #6A6A6A",
"6	c #343434",
"7	c #2D2D2D",
"8	c #313131",
"9	c #4F4F4F",
"0	c #2C2C2C",
"a	c #5A5A5A",
"b	c #0E0E0E",
"c	c #0C0C0C",
"d	c #505050",
"e	c #585858",
"f	c #646464",
"g	c #2F2F2F",
"h	c #383838",
"i	c #565656",
"j	c #101010",
"k	c #404040",
"l	c #676767",
"m	c #525252",
"n	c #494949",
"o	c #141414",
"p	c #3D3D3D",
"q	c #0D0D0D",
"r	c #444444",
"s	c #1E1E1E",
"t	c #545454",
"u	c #616161",
"v	c #262626",
"w	c #535353",
"x	c #333333",
"y	c #1C1C1C",
"z	c #4E4E4E",
"A	c #606060",
"B	c #595959",
"C	c #6D6D6D",
"D	c #121212",
"E	c #555555",
"F	c #323232",
"G	c #111111",
"H	c #686868",
"I	c #575757",
"J	c #696969",
"K	c #171717",
"L	c #454545",
"M	c #6F6F6F",
"                                        ",
"                                        ",
"                                        ",
"                                        ",
"                                        ",
"                                        ",
"                                        ",
"                                        ",
"                                        ",
"                                        ",
"                                        ",
"                   .+@.  .#             ",
"                   .$@.  ##%.           ",
"                   .&&. .+@%. .         ",
"                  ..$@. #&%%..+%.       ",
"                  .&$#.%&@&&.%&+@..     ",
"                  .+@&&@&+&&$*&+@%%     ",
"                 .@$&&&&@+&&$=-%%#%.    ",
"                 ;@@&&&&++&&*>,.%%%..   ",
"                 ')$&&&&+@&$!~{.%%%.    ",
"                .]^&&&&++&&*/(_.%%%.    ",
"                :<$&&[^+&&&*}|%.%..     ",
"                12&&&^@+&&*3~#%.%%.     ",
"               .[[&&&&++&&*45;%%%..     ",
"               .6^&&&&+&&&*5,%%%%..     ",
"               ;6&&&&@+&&&=~{%%%%..     ",
"              .78&&&&#+&@*45;%%%..      ",
"              ._^&&&&+&&&*59%%%%..      ",
"              .@^&&&&+&@&*~0%%%%.       ",
"              .&&&&&++@&9a5bc%%%.       ",
"             .&&&&&&++@@9/9b%%%.        ",
"             .$&@&&+@@@$d~0%%%%%        ",
"             .&&&@&+#&@$e}b%%%%.        ",
"            .|[&&&&@@&&$f9%%%%..        ",
"            .2[&&&@+@@$$~g%%%%..        ",
"            %h&&&&++&@$i}j%%%..         ",
"           .gk&&&&@@@@9lmc%%%..         ",
"           .[n&&&+@&&&$~g%%%%.          ",
"           op&&&&@@&&&!}jq%%%.          ",
"          .@r&&&&@+&&9lmc%%%%.          ",
"          %[&&&&@@#&&*~gc%%%.           ",
"          sk&&&&@+&&9t}j%%%%.           ",
"         .<&&&&&+@&@9u4.%%%..           ",
"         o{&&&&&#&&$95g%%%%.            ",
"        .v@&&&&++&@$w}j%%%%.            ",
"        ;x&&&&&+&&&$u3.%%%..            ",
"        y@&&&&&@&&&$5g%%%%..            ",
"       .7^$&&&&#&&&z}j%%%%.             ",
"       .&&$&&&++&&9ABq%%%%.             ",
"      ..&&&&&&++&&*CxD%%%..             ",
"      .&&&&&&#+@&9=}o%%%%.              ",
"      .&&&&&&@#&&9fE%%%%..              ",
"     ..&&@&&&++&&95FG%%%..              ",
"     .&&&&&&&+&&9dHo%%%%.               ",
"     .&&&9&&@@&&9(Iq%%%.#               ",
"    .&&&&$&&++&&9Jh%%%%.+               ",
"    .&&&&*&&+&&@*5K%%%...               ",
"    &&&&$9&@+&@$(!%%%%..                ",
"   .&&&&$$&++&&9JL%%%%..                ",
"   %&&&&&&+++@@9}Kj%%%..                ",
"  %%&&&&&&+#&&$u=c%%%..                 ",
"   %%%@&&&+@&&*4h%%%%.%                 ",
"    %%..@&&&&9*HK%%%%.%                 ",
"      %%.&&&&MAB%%%%..                  ",
"        %.&&&*ih%%%%.%                  ",
"         %%@**5oj%%%%.                  ",
"           %&**q%%%%..                  ",
"            %%*&%%%%                    ",
"              %%%%                      ",
"                                        ",
"                                        ",
"                                        ",
"                                        ",
"                                        ",
"                                        ",
"                                        ",
"                                        "};
