/* XPM */
static char * gunl12_xpm[] = {
"40 78 90 1",
" 	c None",
".	c #232323",
"+	c #070707",
"@	c #1F170B",
"#	c #372313",
"$	c #272727",
"%	c #2F1B0B",
"&	c #6B4727",
"*	c #0B0B0B",
"=	c #732B00",
"-	c #874307",
";	c #373737",
">	c #3B3B3B",
",	c #432F1B",
"'	c #5F4323",
")	c #AF7B1F",
"!	c #4B4B4B",
"~	c #5F0707",
"{	c #530707",
"]	c #C39B2F",
"^	c #D7BB43",
"/	c #470000",
"(	c #430000",
"_	c #5B5B5B",
":	c #5C5C5C",
"<	c #484848",
"[	c #6E6E6E",
"}	c #2A2A2A",
"|	c #6C6C6C",
"1	c #5F5F5F",
"2	c #090909",
"3	c #252525",
"4	c #626262",
"5	c #666666",
"6	c #3A3A3A",
"7	c #3E3E3E",
"8	c #161616",
"9	c #464646",
"0	c #6B6B6B",
"a	c #393939",
"b	c #5E5E5E",
"c	c #343434",
"d	c #0A0A0A",
"e	c #6A6A6A",
"f	c #636363",
"g	c #313131",
"h	c #2D2D2D",
"i	c #4F4F4F",
"j	c #2C2C2C",
"k	c #0C0C0C",
"l	c #0E0E0E",
"m	c #5A5A5A",
"n	c #505050",
"o	c #585858",
"p	c #646464",
"q	c #2F2F2F",
"r	c #101010",
"s	c #565656",
"t	c #383838",
"u	c #525252",
"v	c #676767",
"w	c #404040",
"x	c #494949",
"y	c #0D0D0D",
"z	c #3D3D3D",
"A	c #141414",
"B	c #444444",
"C	c #545454",
"D	c #1E1E1E",
"E	c #616161",
"F	c #353535",
"G	c #535353",
"H	c #262626",
"I	c #333333",
"J	c #1C1C1C",
"K	c #4E4E4E",
"L	c #595959",
"M	c #606060",
"N	c #121212",
"O	c #6D6D6D",
"P	c #555555",
"Q	c #111111",
"R	c #323232",
"S	c #686868",
"T	c #575757",
"U	c #696969",
"V	c #171717",
"W	c #454545",
"X	c #6F6F6F",
"Y	c #502014",
"                                        ",
"                                        ",
"                                        ",
"                                        ",
"                                        ",
"                                        ",
"                                        ",
"                                        ",
"                                        ",
"                                        ",
"                                        ",
"                                        ",
"                                        ",
"                                        ",
"                                        ",
"                                        ",
"                .+@#+$                  ",
"              .+%%&++.                  ",
"            +*##=-+*;>+                 ",
"          + =,'&;-++.>$                 ",
"        +*&===*)*$-++!>                 ",
"      ++~{=-]^**$>==+!!                 ",
"      *~/{{]]*>>$>*+>;!                 ",
"     +*/(~$>*_>>;>>>>>>+                ",
"    +++(%**!_!>>$>;>>>>;                ",
"     +++***_:!>>$;>>>>>!                ",
"     +*+***<[_>>$$>>>>>>+               ",
"      ++***}|1!>;$>>>>>!2               ",
"      +**+*345_>>$$6>>>78               ",
"      ++****90_>>>$>>>>aa+              ",
"      ++****.|b_>>$>>>>6c+              ",
"      ++****def_>>$;>>>>cd              ",
"       ++****<e_>>>.>>>>gh+             ",
"       ++****ie_>>>$>>>>63+             ",
"        +****j|_>;>$>>>>6;+             ",
"        +***klemi>;$$>>>>>+             ",
"         +***li5i;;$$>>>>>>+            ",
"         *****j|n!;;;$>>;>!+            ",
"         +****l0o!;>.$>;>>>+            ",
"         ++****ip!>>;;>>>>a9+           ",
"         ++****q|!!;;$;>>>a7+           ",
"          ++***r0s!;>$$>>>>t*           ",
"          ++***kuvi;;;;>>>>wq+          ",
"           +****q|!>>>;$>>>xa+          ",
"           +***yr01>>>;;>>>>zA          ",
"           +****kuvi>>$;>>>>B;+         ",
"            +***kq|_>>.;;>>>>a*         ",
"            +****r0Ci>>$;>>>>wD         ",
"            ++***+fEi;>;$>>>>>F+        ",
"             +****qei!>>.>>>>>}A        ",
"             +****r0G!;>$$>>>>;H+       ",
"             ++***+bE!>>>$>>>>>Id       ",
"             ++****qe!>>>;>>>>>;J       ",
"              +****r0K>>>.>>>>!6h+      ",
"              +****yLMi>>$$>>>!>>+      ",
"              ++***NIO_>>$$>>>>>>++     ",
"               +****A0:i>;$.>>>>>>+     ",
"               ++****Ppi>>.;>>>>>>+     ",
"               ++***QRei>>$$>>>;>>++    ",
"                +****ASni>>$>>>>>>>+    ",
"                .+***yT4i>>;;>>i>>>+    ",
"                $+****tUi>>$$>>!>>>>+   ",
"                +++***Ve_;>>$>>_>>>>+   ",
"                 ++****14!;>$;>i!>>>>   ",
"                 ++****WUi>>$$>!!>>>>+  ",
"                 ++***rV0i;;$$$>>>>>>*  ",
"                  ++***k:E!>>.$>>>>>>** ",
"                  *+****tf_>>;$>>>;***  ",
"                  *+****VS_i>>>>;++**   ",
"                   ++****LMX>>>>+**     ",
"                   *+****ts_>>>+*       ",
"                   +****rAe__;**        ",
"                   ++****y__>*          ",
"                     ****>_**           ",
"                      ****              ",
"Y                                       ",
"YY                                      ",
"YYY                                     "};
