/* XPM */
static char * gunl11_xpm[] = {
"40 77 78 1",
" 	c None",
".	c #232323",
"+	c #070707",
"@	c #373737",
"#	c #272727",
"$	c #0B0B0B",
"%	c #4B4B4B",
"&	c #3B3B3B",
"*	c #5B5B5B",
"=	c #656565",
"-	c #5C5C5C",
";	c #484848",
">	c #6E6E6E",
",	c #0A0A0A",
"'	c #2A2A2A",
")	c #6C6C6C",
"!	c #5F5F5F",
"~	c #424242",
"{	c #202020",
"]	c #252525",
"^	c #626262",
"/	c #666666",
"(	c #3A3A3A",
"_	c #2B2B2B",
":	c #464646",
"<	c #6B6B6B",
"[	c #393939",
"}	c #353535",
"|	c #090909",
"1	c #5E5E5E",
"2	c #3E3E3E",
"3	c #161616",
"4	c #6A6A6A",
"5	c #636363",
"6	c #343434",
"7	c #313131",
"8	c #2D2D2D",
"9	c #4F4F4F",
"0	c #2C2C2C",
"a	c #0C0C0C",
"b	c #0E0E0E",
"c	c #5A5A5A",
"d	c #505050",
"e	c #585858",
"f	c #646464",
"g	c #2F2F2F",
"h	c #101010",
"i	c #565656",
"j	c #383838",
"k	c #525252",
"l	c #676767",
"m	c #404040",
"n	c #494949",
"o	c #0D0D0D",
"p	c #3D3D3D",
"q	c #141414",
"r	c #444444",
"s	c #545454",
"t	c #1E1E1E",
"u	c #616161",
"v	c #535353",
"w	c #262626",
"x	c #333333",
"y	c #1C1C1C",
"z	c #4E4E4E",
"A	c #595959",
"B	c #606060",
"C	c #121212",
"D	c #6D6D6D",
"E	c #555555",
"F	c #111111",
"G	c #323232",
"H	c #686868",
"I	c #575757",
"J	c #696969",
"K	c #171717",
"L	c #454545",
"M	c #6F6F6F",
"                                        ",
"                                        ",
"                                        ",
"                                        ",
"                                        ",
"                                        ",
"                                        ",
"                                        ",
"                                        ",
"                                        ",
"                                        ",
"             .+  +@#+                   ",
"           +$..  +@%+                   ",
"         + +$@#+ +&&+                   ",
"       +$#++$$&. +@%++                  ",
"     ++@#&$+&&@&$+.%&+                  ",
"     $$@#&*%&&#&@&&@#+                  ",
"    +$.$$=-%&&#@&&&&%@+                 ",
"   ++$$$+;>*&&##&&&&@@,                 ",
"    +$$$+')!%&@#&&&&%~{                 ",
"    +$$$+]^/*&&##&&&&(_+                ",
"     ++$+$:<*&&&#([&&%}|                ",
"     +$$+$.)1*&&#@(&&&23                ",
"     ++$$$,45*&&##&&&&[[+               ",
"     ++$$$$;4*&&&#&&&&(6+               ",
"     ++$$$$')-&&&#@&&&&6,               ",
"      ++$$$,45*@&#.&&&&78+              ",
"      ++$$$$94*&&&#&&&&(]+              ",
"       +$$$$0)*&@&#&&&&(@+              ",
"       +$$$ab4c9&@##&&&&&+              ",
"        +$$$b9/9@@##&&&&&&+             ",
"        $$$$$0)d%@@@#&&@&%+             ",
"        +$$$$b<e%@&.#&@&&&+             ",
"        ++$$$$9f%&&@@&&&&[:+            ",
"        ++$$$$g)%%@@#@&&&[2+            ",
"         ++$$$h<i%@&##&&&&j$            ",
"         ++$$$akl9@@@@&&&&mg+           ",
"          +$$$$g)%&&&@#&&&n[+           ",
"          +$$$oh<!&&&@@&&&&pq           ",
"          +$$$$akl9&&#@&&&&r@+          ",
"           +$$$ag)*&&.@@&&&&[$          ",
"           +$$$$h<s9&&#@&&&&mt          ",
"           ++$$$+5u9@&@#&&&&&}+         ",
"            +$$$$g49%&&.&&&&&'q         ",
"            +$$$$h<v%@&##&&&&@w+        ",
"            ++$$$+1u%&&&#&&&&&x,        ",
"            ++$$$$g4%&&&@&&&&&@y        ",
"             +$$$$h<z&&&.&&&&%(8+       ",
"             +$$$$oAB9&&##&&&%&&+       ",
"             ++$$$CxD*&&##&&&&&&++      ",
"              +$$$$q<-9&@#.&&&&&&+      ",
"              ++$$$$Ef9&&.@&&&&&&+      ",
"              ++$$$FG49&&##&&&@&&++     ",
"               +$$$$qHd9&&#&&&&&&&+     ",
"               .+$$$oI^9&&@@&&9&&&+     ",
"               #+$$$$jJ9&&##&&%&&&&+    ",
"               +++$$$K4*@&&#&&*&&&&+    ",
"                ++$$$$!^%@&#@&9%&&&&    ",
"                ++$$$$LJ9&&##&%%&&&&+   ",
"                ++$$$hK<9@@###&&&&&&$   ",
"                 ++$$$a-u%&&.#&&&&&&$$  ",
"                 $+$$$$j5*&&@#&&&@$$$   ",
"                 $+$$$$KH*9&&&&@++$$    ",
"                  ++$$$$ABM&&&&+$$      ",
"                  $+$$$$ji*&&&+$        ",
"                  +$$$$hq4**@$$         ",
"                  ++$$$$o**&$           ",
"                    $$$$&*$$            ",
"                      $$$$              ",
"                                        ",
"                                        ",
"                                        ",
"                                        ",
"                                        ",
"                                        ",
"                                        ",
"                                        "};
