/* XPM */
static char * retic_xpm[] = {
"38 38 4 1",
" 	c None",
".	c #000000",
"+	c #FFFFFF",
"@	c #FF0000",
"                                      ",
"                                      ",
"                                      ",
"                                      ",
"                                      ",
"                                      ",
"                                      ",
"                                      ",
"               @@      @              ",
"             @  @     @@ @            ",
"            @ @         @ @           ",
"           @              @@          ",
"          @                @@         ",
"           @     @@ @@       @        ",
"         @@     @  @  @     @@        ",
"          @    @   @                  ",
"        @     @    @    @    @@       ",
"        @@         @         @@       ",
"   @@@@@@@@@@@     @     @@@@@@@@@@@  ",
"   @@@@@@@@@@@     @     @@@@@@@@@@@  ",
"        @@    @    @         @@       ",
"        @     @    @    @    @@       ",
"          @    @   @   @              ",
"         @@     @  @  @     @@        ",
"           @      @ @      @ @        ",
"          @                 @         ",
"           @ @             @          ",
"            @ @         @ @           ",
"             @  @     @  @            ",
"               @@     @@              ",
"                                      ",
"                                      ",
"                                      ",
"                                      ",
"                                      ",
"                                      ",
"                                      ",
"                                      "};
